<svg xmlns="http://www.w3.org/2000/svg" width="1440" height="900" viewBox="0 0 1440 900" role="img" aria-labelledby="title desc">
  <title id="title">Base B20 operations console preview</title>
  <desc id="desc">A preview of the Base B20 web app with workflow, launch workspace, payment intent, token workspace, governance snapshot, receipt reconciliation, and activity log panels.</desc>
  <defs>
    <style>
      .bg { fill: #eef2ef; }
      .panel { fill: #ffffff; stroke: #c3cec7; stroke-width: 1.2; }
      .panel-soft { fill: #f7fbf8; stroke: #c3cec7; stroke-width: 1.2; }
      .ink { fill: #16201d; font-family: Inter, Arial, sans-serif; }
      .muted { fill: #65766f; font-family: Inter, Arial, sans-serif; }
      .mono { fill: #263631; font-family: ui-monospace, SFMono-Regular, Menlo, Consolas, monospace; }
      .button { fill: #15201d; }
      .button-text { fill: #ffffff; font-family: Inter, Arial, sans-serif; font-weight: 700; }
      .outline { fill: #ffffff; stroke: #15201d; stroke-width: 1.2; }
      .accent { fill: #2c7566; }
      .done { fill: #1f8b61; }
      .warn { fill: #d19b2d; }
      .log { fill: #111816; }
      .log-text { fill: #e9fff8; font-family: ui-monospace, SFMono-Regular, Menlo, Consolas, monospace; }
      .field { fill: #fbfcfb; stroke: #b8c5be; stroke-width: 1.1; }
      .line { stroke: #edf1ee; stroke-width: 1; }
    </style>
  </defs>

  <rect class="bg" width="1440" height="900"/>

  <text x="48" y="56" class="muted" font-size="14" font-weight="800">BASE SEPOLIA TESTNET</text>
  <text x="48" y="104" class="ink" font-size="42" font-weight="800">B20 operations console</text>
  <rect x="1018" y="48" width="250" height="44" rx="6" class="panel"/>
  <text x="1038" y="75" class="muted" font-size="15">Connected to Base Sepolia</text>
  <rect x="1286" y="48" width="106" height="44" rx="6" class="button"/>
  <text x="1306" y="75" class="button-text" font-size="14">MetaMask</text>

  <g transform="translate(48 132)">
    <rect x="0" y="0" width="321" height="64" rx="8" class="panel-soft"/>
    <circle cx="34" cy="32" r="16" class="done"/>
    <text x="29" y="37" class="button-text" font-size="14" font-weight="800">1</text>
    <text x="62" y="38" class="ink" font-size="17" font-weight="800">Wallet</text>

    <rect x="337" y="0" width="321" height="64" rx="8" class="panel-soft"/>
    <circle cx="371" cy="32" r="16" class="done"/>
    <text x="366" y="37" class="button-text" font-size="14" font-weight="800">2</text>
    <text x="399" y="38" class="ink" font-size="17" font-weight="800">Token</text>

    <rect x="674" y="0" width="321" height="64" rx="8" class="panel" stroke="#2c7566"/>
    <circle cx="708" cy="32" r="16" class="accent"/>
    <text x="703" y="37" class="button-text" font-size="14" font-weight="800">3</text>
    <text x="736" y="38" class="ink" font-size="17" font-weight="800">Memo transfer</text>

    <rect x="1011" y="0" width="321" height="64" rx="8" class="panel"/>
    <circle cx="1045" cy="32" r="16" fill="#e7ece8"/>
    <text x="1040" y="37" class="muted" font-size="14" font-weight="800">4</text>
    <text x="1073" y="38" class="muted" font-size="17" font-weight="800">Reconcile</text>
  </g>

  <g transform="translate(48 220)">
    <rect x="0" y="0" width="416" height="400" rx="8" class="panel"/>
    <text x="22" y="34" class="ink" font-size="18" font-weight="800">Launch workspace</text>
    <rect x="300" y="14" width="94" height="36" rx="6" class="button"/>
    <text x="316" y="37" class="button-text" font-size="13">Sepolia</text>

    <text x="22" y="78" class="muted" font-size="12" font-weight="800">WALLET PROVIDER</text>
    <rect x="22" y="88" width="372" height="40" rx="6" class="field"/>
    <text x="38" y="113" class="mono" font-size="14">MetaMask (io.metamask)</text>

    <text x="22" y="156" class="muted" font-size="12" font-weight="800">TOKEN</text>
    <rect x="22" y="166" width="180" height="40" rx="6" class="field"/>
    <text x="38" y="191" class="mono" font-size="14">DieuTX B20</text>
    <rect x="214" y="166" width="180" height="40" rx="6" class="field"/>
    <text x="230" y="191" class="mono" font-size="14">DIEUTX</text>

    <rect x="22" y="226" width="112" height="40" rx="6" class="field"/>
    <text x="38" y="251" class="mono" font-size="14">18</text>
    <rect x="146" y="226" width="124" height="40" rx="6" class="field"/>
    <text x="162" y="251" class="mono" font-size="14">1000000</text>
    <rect x="282" y="226" width="112" height="40" rx="6" class="field"/>
    <text x="298" y="251" class="mono" font-size="14">v1</text>

    <rect x="22" y="294" width="180" height="42" rx="6" class="outline"/>
    <text x="78" y="320" class="ink" font-size="14" font-weight="800">Preview</text>
    <rect x="214" y="294" width="180" height="42" rx="6" class="button"/>
    <text x="268" y="320" class="button-text" font-size="14">Deploy B20</text>

    <line x1="22" y1="358" x2="394" y2="358" class="line"/>
    <text x="22" y="383" class="ink" font-size="15" font-weight="800">Mint with memo</text>
    <rect x="244" y="365" width="150" height="34" rx="6" class="button"/>
    <text x="273" y="387" class="button-text" font-size="13">Mint to wallet</text>
  </g>

  <g transform="translate(48 636)">
    <rect x="0" y="0" width="416" height="202" rx="8" class="panel"/>
    <text x="22" y="34" class="ink" font-size="18" font-weight="800">Transfer / redeem</text>
    <rect x="244" y="14" width="150" height="36" rx="6" class="button"/>
    <text x="262" y="37" class="button-text" font-size="13">Send memo</text>
    <rect x="22" y="68" width="176" height="38" rx="6" class="field"/>
    <text x="38" y="92" class="mono" font-size="13">PAYMENT</text>
    <rect x="210" y="68" width="184" height="38" rx="6" class="field"/>
    <text x="226" y="92" class="mono" font-size="13">order-1</text>
    <rect x="22" y="122" width="260" height="38" rx="6" class="field"/>
    <text x="38" y="146" class="mono" font-size="13">0x0cd...3e4b8</text>
    <rect x="294" y="122" width="100" height="38" rx="6" class="field"/>
    <text x="310" y="146" class="mono" font-size="13">1.00</text>
    <text x="22" y="184" class="muted" font-size="12" font-weight="800">INTENT STATUS</text>
    <text x="140" y="184" class="mono" font-size="13">memo ready</text>
  </g>

  <g transform="translate(480 220)">
    <rect x="0" y="0" width="448" height="618" rx="8" class="panel"/>
    <text x="22" y="34" class="ink" font-size="18" font-weight="800">Token workspace</text>
    <rect x="330" y="14" width="96" height="36" rx="6" class="button"/>
    <text x="350" y="37" class="button-text" font-size="13">Load</text>
    <rect x="22" y="68" width="404" height="40" rx="6" class="field"/>
    <text x="38" y="93" class="mono" font-size="13">0xb2000000000000000000000Ac7b3A3E8930eAfE3</text>

    <g transform="translate(22 138)">
      <text y="0" class="muted" font-size="12" font-weight="800">ACCOUNT</text>
      <text x="155" y="0" class="mono" font-size="13">0x0cd269...3e4b8</text>
      <line x1="0" y1="18" x2="404" y2="18" class="line"/>
      <text y="50" class="muted" font-size="12" font-weight="800">LOADED TOKEN</text>
      <text x="155" y="50" class="mono" font-size="13">0xb200...AfE3</text>
      <line x1="0" y1="68" x2="404" y2="68" class="line"/>
      <text y="100" class="muted" font-size="12" font-weight="800">BALANCE</text>
      <text x="155" y="100" class="mono" font-size="13">1,000 DIEUTX</text>
      <line x1="0" y1="118" x2="404" y2="118" class="line"/>
      <text y="150" class="muted" font-size="12" font-weight="800">IDENTITY</text>
      <text x="155" y="150" class="mono" font-size="13">DieuTX B20 (DIEUTX)</text>
      <line x1="0" y1="168" x2="404" y2="168" class="line"/>
      <text y="200" class="muted" font-size="12" font-weight="800">VARIANT</text>
      <text x="155" y="200" class="mono" font-size="13">Asset (18 decimals)</text>
      <line x1="0" y1="218" x2="404" y2="218" class="line"/>
      <text y="250" class="muted" font-size="12" font-weight="800">TOTAL SUPPLY</text>
      <text x="155" y="250" class="mono" font-size="13">1,000 DIEUTX</text>
      <line x1="0" y1="268" x2="404" y2="268" class="line"/>
      <text y="300" class="muted" font-size="12" font-weight="800">SUPPLY CAP</text>
      <text x="155" y="300" class="mono" font-size="13">1,000,000 DIEUTX</text>
    </g>

    <rect x="22" y="514" width="404" height="78" rx="8" class="panel-soft"/>
    <text x="42" y="544" class="muted" font-size="12" font-weight="800">MEMO BYTES32</text>
    <text x="42" y="570" class="mono" font-size="13">0x42f...c3686</text>
  </g>

  <g transform="translate(944 220)">
    <rect x="0" y="0" width="448" height="238" rx="8" class="panel"/>
    <text x="22" y="34" class="ink" font-size="18" font-weight="800">Governance snapshot</text>
    <rect x="334" y="14" width="92" height="36" rx="6" class="button"/>
    <text x="358" y="37" class="button-text" font-size="13">Refresh</text>
    <text x="22" y="82" class="muted" font-size="12" font-weight="800">CONNECTED ROLES</text>
    <text x="184" y="82" class="mono" font-size="13">MINT, PAUSE</text>
    <line x1="22" y1="102" x2="426" y2="102" class="line"/>
    <text x="22" y="134" class="muted" font-size="12" font-weight="800">POLICY IDS</text>
    <text x="184" y="134" class="mono" font-size="13">sender: 0, receiver: 0</text>
    <line x1="22" y1="154" x2="426" y2="154" class="line"/>
    <text x="22" y="186" class="muted" font-size="12" font-weight="800">PAUSED FEATURES</text>
    <text x="184" y="186" class="mono" font-size="13">none</text>
    <rect x="22" y="208" width="6" height="16" class="warn"/>
    <text x="38" y="221" class="muted" font-size="12" font-weight="800">Burn and policy flows stay behind CLI guardrails</text>
  </g>

  <g transform="translate(944 474)">
    <rect x="0" y="0" width="448" height="174" rx="8" class="panel"/>
    <text x="22" y="34" class="ink" font-size="18" font-weight="800">Receipt reconciliation</text>
    <rect x="300" y="14" width="126" height="36" rx="6" class="button"/>
    <text x="322" y="37" class="button-text" font-size="13">Check receipt</text>
    <rect x="22" y="68" width="404" height="38" rx="6" class="field"/>
    <text x="38" y="92" class="mono" font-size="13">0x5458c35f...3936d769</text>
    <rect x="22" y="122" width="404" height="34" rx="6" class="log"/>
    <text x="40" y="144" class="log-text" font-size="13">validation: ok | logs 18/19 | memo matched</text>
  </g>

  <g transform="translate(944 664)">
    <rect x="0" y="0" width="448" height="174" rx="8" class="panel"/>
    <text x="22" y="34" class="ink" font-size="18" font-weight="800">Activity log</text>
    <rect x="22" y="54" width="404" height="98" rx="6" class="log"/>
    <text x="40" y="82" class="log-text" font-size="13">[4:52:46 PM] B20 token deployed</text>
    <text x="40" y="110" class="log-text" font-size="13">[4:53:10 PM] Memo preview created</text>
    <text x="40" y="138" class="log-text" font-size="13">[4:53:42 PM] Receipt check found 1 pair</text>
  </g>
</svg>
